<svg width="17" height="17" viewBox="0 0 17 17" fill="none" xmlns="http://www.w3.org/2000/svg">
<path d="M8.5 0C3.80444 0 0 3.80444 0 8.5C0 13.1956 3.80444 17 8.5 17C13.1956 17 17 13.1956 17 8.5C17 3.80444 13.1956 0 8.5 0ZM8.5 3.29032C10.1657 3.29032 11.5161 4.64073 11.5161 6.30645C11.5161 7.97218 10.1657 9.32258 8.5 9.32258C6.83427 9.32258 5.48387 7.97218 5.48387 6.30645C5.48387 4.64073 6.83427 3.29032 8.5 3.29032ZM8.5 15.0806C6.4881 15.0806 4.68528 14.169 3.47883 12.7431C4.12319 11.5298 5.38448 10.6935 6.85484 10.6935C6.9371 10.6935 7.01936 10.7073 7.09819 10.7313C7.54375 10.8752 8.00988 10.9677 8.5 10.9677C8.99012 10.9677 9.45968 10.8752 9.90181 10.7313C9.98065 10.7073 10.0629 10.6935 10.1452 10.6935C11.6155 10.6935 12.8768 11.5298 13.5212 12.7431C12.3147 14.169 10.5119 15.0806 8.5 15.0806Z" fill="#686B7E"/>
</svg>
