<svg width="25" height="25" viewBox="0 0 25 25" fill="none" xmlns="http://www.w3.org/2000/svg">
<path d="M11.6771 0.152168L1.51885 4.02766C0.605587 4.37545 0 5.2698 0 6.26351V17.4478C0 18.352 0.503028 19.1768 1.2942 19.5793L11.4524 24.7466C12.1117 25.0845 12.8883 25.0845 13.5476 24.7466L23.7058 19.5793C24.5019 19.1768 25 18.3471 25 17.4478V6.26351C25 5.2698 24.3944 4.38042 23.4811 4.03262L13.3229 0.157137C12.7955 -0.0515433 12.2094 -0.0515433 11.6771 0.152168ZM12.5024 3.23765L21.8793 6.81502V6.86968L12.5024 10.7452L3.12561 6.86968V6.81502L12.5024 3.23765ZM14.0652 20.9258V13.5276L21.8793 10.298V16.9509L14.0652 20.9258Z" fill="#FBFFFF"/>
</svg>
